# xmcd
#
# Track frame offsets:
#	150
#	13891
#	34763
#	51945
#	63950
#	76116
#	94217
#	107897
#	130799
#	145707
#	161166
#	183203
#	197478
#	214364
#
# Disc length: 3040 seconds
#
# Revision: 0
# Processed by: cddbd v1.5.2PL0 Copyright (c) Steve Scherf et al.
# Submitted via: EasyCDDAExtractor 11.1.0.1
#
DISCID=c00bde0e
DTITLE=Various Artist - Mr country hits
DYEAR=2010
DGENRE=country
TTITLE0=Trace Dakins - I left something turning on at home
TTITLE1=Alan Jackson - Freight train
TTITLE2=Amber Digby - I'm not that kind of girl
TTITLE3=The Survivors - Whiskey man
TTITLE4=Merle Haggard - America first
TTITLE5=Kasey Chambers - Bluebird
TTITLE6=Steve Maynard - Tell me a lie
TTITLE7=Chris Cagle - It takes two
TTITLE8=Gretchen Wilson and Merle Haggard - Politically uncorrect
TTITLE9=Dusty Owens - Cajun baby
TTITLE10=Chip Taylor - Saw mill river road
TTITLE11=Janice Maynard - Gettin' tired of losing you
TTITLE12=George Jones and Mark Chesnutt - When the grass grows over me
TTITLE13=Georgette Jones - I still believe in fairy tales
EXTD=
EXTT0=
EXTT1=
EXTT2=
EXTT3=
EXTT4=
EXTT5=
EXTT6=
EXTT7=
EXTT8=
EXTT9=
EXTT10=
EXTT11=
EXTT12=
EXTT13=
PLAYORDER=
